<?xml version="1.0" encoding="iso-8859-1"?>
<!-- Generator: Adobe Illustrator 19.0.0, SVG Export Plug-In . SVG Version: 6.00 Build 0)  -->
<svg version="1.1" id="Capa_1" xmlns="http://www.w3.org/2000/svg" xmlns:xlink="http://www.w3.org/1999/xlink" x="0px" y="0px"
	 viewBox="0 0 423.253 423.253" style="enable-background:new 0 0 423.253 423.253;" xml:space="preserve">
<g>
	<g>
		<path d="M348.16,191.097H232.107V75.044c0-3.77-3.053-6.827-6.827-6.827h-27.307c-3.773,0-6.827,3.057-6.827,6.827v116.053H75.093
			c-3.773,0-6.827,3.057-6.827,6.827v27.307c0,3.77,3.053,6.827,6.827,6.827h116.053V348.11c0,3.77,3.053,6.827,6.827,6.827h27.307
			c3.773,0,6.827-3.057,6.827-6.827V232.057H348.16c3.773,0,6.827-3.057,6.827-6.827v-27.307
			C354.987,194.154,351.933,191.097,348.16,191.097z M341.333,218.404H225.28c-3.773,0-6.827,3.057-6.827,6.827v116.053H204.8
			V225.23c0-3.77-3.053-6.827-6.827-6.827H81.92V204.75h116.053c3.773,0,6.827-3.057,6.827-6.827V81.87h13.653v116.053
			c0,3.77,3.053,6.827,6.827,6.827h116.053V218.404z"/>
	</g>
</g>
<g>
	<g>
		<path d="M278.141,70.477L216.701,2.21c-2.586-2.881-7.559-2.881-10.146,0l-61.44,68.267c-1.807,2.004-2.261,4.881-1.161,7.344
			c1.092,2.463,3.54,4.05,6.233,4.05h122.88c2.693,0,5.141-1.587,6.234-4.05C280.4,75.356,279.948,72.48,278.141,70.477z
			 M165.513,68.217l46.114-51.238l46.112,51.238H165.513z"/>
	</g>
</g>
<g>
	<g>
		<path d="M77.873,143.899c-2.461-1.089-5.333-0.64-7.347,1.164L2.26,206.503c-1.44,1.294-2.26,3.139-2.26,5.074
			s0.819,3.78,2.26,5.074l68.267,61.44c1.28,1.149,2.913,1.753,4.567,1.753c0.94,0,1.886-0.195,2.78-0.592
			c2.459-1.096,4.047-3.54,4.047-6.236v-122.88C81.92,147.439,80.333,144.997,77.873,143.899z M68.267,257.69l-51.234-46.112
			l51.234-46.114V257.69z"/>
	</g>
</g>
<g>
	<g>
		<path d="M420.994,206.505l-68.267-61.44c-2.007-1.804-4.881-2.258-7.347-1.164c-2.459,1.096-4.047,3.54-4.047,6.236v122.88
			c0,2.697,1.587,5.139,4.047,6.236c0.894,0.398,1.84,0.591,2.78,0.591c1.654,0,3.287-0.604,4.567-1.751l68.267-61.44
			c1.44-1.294,2.26-3.137,2.26-5.074S422.434,207.799,420.994,206.505z M354.987,257.69v-92.227l51.234,46.112L354.987,257.69z"/>
	</g>
</g>
<g>
	<g>
		<path d="M279.298,345.334c-1.092-2.463-3.54-4.05-6.233-4.05h-122.88c-2.693,0-5.139,1.587-6.233,4.05
			c-1.099,2.464-0.647,5.34,1.161,7.344l61.44,68.267c1.294,1.44,3.14,2.26,5.074,2.26s3.78-0.821,5.07-2.26l61.44-68.267
			C279.945,350.674,280.399,347.796,279.298,345.334z M211.627,406.173l-46.114-51.236h92.228L211.627,406.173z"/>
	</g>
</g>
<g>
</g>
<g>
</g>
<g>
</g>
<g>
</g>
<g>
</g>
<g>
</g>
<g>
</g>
<g>
</g>
<g>
</g>
<g>
</g>
<g>
</g>
<g>
</g>
<g>
</g>
<g>
</g>
<g>
</g>
</svg>
