<?xml version="1.0" encoding="iso-8859-1"?>
<!-- Generator: Adobe Illustrator 19.0.0, SVG Export Plug-In . SVG Version: 6.00 Build 0)  -->
<svg version="1.1" id="Capa_1" xmlns="http://www.w3.org/2000/svg" xmlns:xlink="http://www.w3.org/1999/xlink" x="0px" y="0px"
	 viewBox="0 0 382.293 382.293" style="enable-background:new 0 0 382.293 382.293;" xml:space="preserve">
<g>
	<g>
		<path d="M191.147,116.367c-26.348,0-47.787,21.437-47.787,47.787c0,26.349,21.439,47.787,47.787,47.787
			s47.787-21.437,47.787-47.787S217.494,116.367,191.147,116.367z M191.147,198.287c-18.819,0-34.133-15.314-34.133-34.133
			s15.314-34.133,34.133-34.133s34.133,15.314,34.133,34.133C225.28,182.973,209.966,198.287,191.147,198.287z"/>
	</g>
</g>
<g>
	<g>
		<path d="M191.147,198.287c-3.773,0-6.827,3.057-6.827,6.827v143.36c0,3.77,3.053,6.827,6.827,6.827s6.827-3.057,6.827-6.827
			v-143.36C197.973,201.344,194.92,198.287,191.147,198.287z"/>
	</g>
</g>
<g>
	<g>
		<path d="M236.933,302.686c-2.666-2.666-6.987-2.666-9.653,0l-36.134,36.134l-36.134-36.132c-2.666-2.666-6.987-2.666-9.653,0
			c-2.666,2.666-2.666,6.987,0,9.653l40.96,40.96c1.333,1.333,3.081,2,4.826,2s3.494-0.667,4.826-2.002l40.96-40.96
			C239.599,309.673,239.599,305.352,236.933,302.686z"/>
	</g>
</g>
<g>
	<g>
		<path d="M375.467,157.327h-143.36c-3.773,0-6.827,3.057-6.827,6.827s3.053,6.827,6.827,6.827h143.36
			c3.773,0,6.827-3.057,6.827-6.827S379.24,157.327,375.467,157.327z"/>
	</g>
</g>
<g>
	<g>
		<path d="M380.293,159.328l-40.96-40.96c-2.666-2.666-6.987-2.666-9.653,0c-2.666,2.666-2.666,6.987,0,9.653l36.134,36.134
			l-36.134,36.134c-2.666,2.666-2.666,6.987,0,9.653c1.333,1.333,3.081,2,4.826,2s3.494-0.667,4.826-2l40.96-40.96
			C382.959,166.315,382.959,161.993,380.293,159.328z"/>
	</g>
</g>
<g>
	<g>
		<path d="M150.187,157.327H6.827c-3.773,0-6.827,3.057-6.827,6.827s3.053,6.827,6.827,6.827h143.36
			c3.773,0,6.827-3.057,6.827-6.827S153.96,157.327,150.187,157.327z"/>
	</g>
</g>
<g>
	<g>
		<path d="M16.48,164.154l36.134-36.134c2.666-2.666,2.666-6.987,0-9.653c-2.666-2.666-6.987-2.666-9.653,0L2,159.328
			c-2.666,2.666-2.666,6.987,0,9.653l40.96,40.96c1.333,1.333,3.081,2,4.826,2s3.494-0.667,4.826-2c2.666-2.666,2.666-6.987,0-9.653
			L16.48,164.154z"/>
	</g>
</g>
<g>
	<g>
		<path d="M326.306,28.995c-2.666-2.666-6.987-2.666-9.653,0L215.281,130.364c-2.666,2.666-2.666,6.987,0,9.653
			c1.333,1.333,3.081,2,4.826,2s3.494-0.667,4.826-2L326.306,38.647C328.972,35.982,328.972,31.66,326.306,28.995z"/>
	</g>
</g>
<g>
	<g>
		<path d="M321.48,26.993h-57.926c-3.773,0-6.827,3.057-6.827,6.827s3.053,6.827,6.827,6.827h51.099v51.101
			c0,3.77,3.053,6.827,6.827,6.827s6.827-3.057,6.827-6.828V33.819C328.306,30.049,325.253,26.993,321.48,26.993z"/>
	</g>
</g>
<g>
	<g>
		<path d="M167.013,130.364L65.64,28.995c-2.666-2.666-6.987-2.666-9.653,0c-2.666,2.666-2.666,6.987,0,9.653L157.36,140.017
			c1.333,1.333,3.081,2,4.826,2c1.748,0,3.494-0.667,4.826-2C169.678,137.351,169.678,133.03,167.013,130.364z"/>
	</g>
</g>
<g>
	<g>
		<path d="M118.74,26.993H60.814c-3.773,0-6.827,3.057-6.827,6.827v57.928c0,3.77,3.053,6.827,6.827,6.827s6.827-3.057,6.827-6.828
			V40.646h51.099c3.773,0,6.827-3.057,6.827-6.827S122.513,26.993,118.74,26.993z"/>
	</g>
</g>
<g>
</g>
<g>
</g>
<g>
</g>
<g>
</g>
<g>
</g>
<g>
</g>
<g>
</g>
<g>
</g>
<g>
</g>
<g>
</g>
<g>
</g>
<g>
</g>
<g>
</g>
<g>
</g>
<g>
</g>
</svg>
